<svg id="Layer_1" data-name="Layer 1" xmlns="http://www.w3.org/2000/svg" viewBox="0 0 32.99 33.29"><defs><style>.cls-1{fill:none;stroke:#25282a;}.cls-2{fill:#25282a;}</style></defs><path id="Path" class="cls-1" d="M17.71,1.89a16,16,0,0,0-14.77,10A16.25,16.25,0,0,0,6.4,29.45,15.85,15.85,0,0,0,23.82,33,16.17,16.17,0,0,0,17.71,1.89Z" transform="translate(-1.22 -1.39)"/><path id="Path-2" class="cls-2" d="M21.7,13.8H20.06a.62.62,0,0,0-.65.59v1.67h2.28l-.26,2.61h-2v7.46H16.36V18.67H14.91V16.05h1.45V14.36A2.87,2.87,0,0,1,19,11.25H21.7Z" transform="translate(-1.22 -1.39)"/></svg>