<svg id="Layer_1" data-name="Layer 1" xmlns="http://www.w3.org/2000/svg" viewBox="0 0 32.99 33.29"><defs><style>.cls-1{fill:none;stroke:#25282a;}</style></defs><path id="Path" class="cls-1" d="M22.47,10.36H12.94a2.8,2.8,0,0,0-2,.83,2.84,2.84,0,0,0-.8,2v9.61a2.78,2.78,0,0,0,2.76,2.79h9.53a2.76,2.76,0,0,0,2-.81,2.83,2.83,0,0,0,.81-2V13.16a2.78,2.78,0,0,0-2.77-2.8Z" transform="translate(-1.22 -1.27)"/><path id="Path-2" class="cls-1" d="M17.71,21.12a3.16,3.16,0,1,1,2.21-.93,3.1,3.1,0,0,1-2.21.92Z" transform="translate(-1.22 -1.27)"/><path id="Path-3" class="cls-1" d="M22.58,13.73a.68.68,0,0,1,0-1.36.68.68,0,1,1,0,1.36Z" transform="translate(-1.22 -1.27)"/><path id="Shape" class="cls-1" d="M17.71,1.77a16,16,0,0,0-14.77,10A16.26,16.26,0,0,0,6.4,29.34a15.87,15.87,0,0,0,17.42,3.5A16.17,16.17,0,0,0,17.71,1.77Z" transform="translate(-1.22 -1.27)"/></svg>