<svg id="Layer_1" data-name="Layer 1" xmlns="http://www.w3.org/2000/svg" viewBox="0 0 32.99 33.29"><defs><style>.cls-1{fill:none;stroke:#25282a;}.cls-2{fill:#25282a;}</style></defs><path id="Path" class="cls-1" d="M17.48,1.07A16,16,0,0,0,2.7,11a16.28,16.28,0,0,0,3.47,17.6,15.87,15.87,0,0,0,17.42,3.5A16.17,16.17,0,0,0,17.48,1.07Z" transform="translate(-0.98 -0.57)"/><path id="Path-2" class="cls-2" d="M23,14.88v.34a7.43,7.43,0,0,1-7.36,7.53h-.1a7.29,7.29,0,0,1-4-1.19,5.24,5.24,0,0,0,3.88-1.1A2.62,2.62,0,0,1,13,18.63a2.72,2.72,0,0,0,.49.05,2.6,2.6,0,0,0,.68-.1A2.65,2.65,0,0,1,12.07,16v0a2.67,2.67,0,0,0,1.19.34,2.67,2.67,0,0,1-.81-3.54,7.42,7.42,0,0,0,5.41,2.77,2.46,2.46,0,0,1-.07-.6,2.65,2.65,0,0,1,1.66-2.47,2.61,2.61,0,0,1,2.88.65A5,5,0,0,0,24,12.46a2.6,2.6,0,0,1-1.15,1.47,5.32,5.32,0,0,0,1.51-.43A5.42,5.42,0,0,1,23,14.88Z" transform="translate(-0.98 -0.57)"/></svg>