<?xml version="1.0" encoding="utf-8"?>
<svg version="1.1" id="Layer_1" xmlns="http://www.w3.org/2000/svg" xmlns:xlink="http://www.w3.org/1999/xlink" x="0px" y="0px"
 viewBox="0 0 841.89 595.28" enable-background="new 0 0 841.89 595.28" xml:space="preserve">
<g>
	<polygon fill="#ffffff" points="460.824,493.846 359.005,493.846 236.165,259.278 147.372,428.775 215.646,428.775 
		215.646,493.846 11.513,493.846 236.165,83.278 	"/>
	<path fill="#ffffff" d="M630.053,493.877c-56.71,0-105.097-20.039-145.176-60.126c-40.089-40.073-60.13-88.471-60.13-145.183
		c0-56.704,20.041-105.1,60.13-145.179c40.079-40.082,88.466-60.13,145.176-60.13c56.711,0,105.106,20.048,145.187,60.13
		c40.08,40.08,60.131,88.475,60.131,145.179c0,56.712-20.051,105.109-60.131,145.183
		C735.159,473.838,686.764,493.877,630.053,493.877z M630.053,405.888c32.456,0,60.132-11.438,83.009-34.318
		c22.876-22.87,34.32-50.54,34.32-83.001c0-32.453-11.444-60.126-34.32-83c-22.877-22.879-50.553-34.32-83.009-34.32
		c-32.451,0-60.119,11.441-82.995,34.32c-22.879,22.874-34.317,50.547-34.317,83c0,32.461,11.438,60.131,34.317,83.001
		C569.934,394.45,597.602,405.888,630.053,405.888z"/>
</g>
</svg>
